<?xml version="1.0" standalone="no"?>
<!DOCTYPE svg PUBLIC "-//W3C//DTD SVG 20010904//EN"
 "http://www.w3.org/TR/2001/REC-SVG-20010904/DTD/svg10.dtd">
<svg version="1.0" xmlns="http://www.w3.org/2000/svg"
 width="896.000000pt" height="896.000000pt" viewBox="0 0 896.000000 896.000000"
 preserveAspectRatio="xMidYMid meet">
<metadata>
Created by potrace 1.14, written by Peter Selinger 2001-2017
</metadata>
<g transform="translate(0.000000,896.000000) scale(0.100000,-0.100000)"
fill="#000000" stroke="none">
<path d="M7297 8934 c-4 -4 -13 -9 -20 -10 -32 -6 -72 -16 -192 -49 -71 -20
-141 -38 -155 -41 -14 -3 -65 -17 -114 -31 -48 -14 -93 -26 -100 -27 -21 -5
-72 -18 -157 -42 -47 -14 -96 -27 -108 -29 -38 -9 -54 -13 -186 -49 -71 -20
-139 -38 -150 -41 -11 -2 -78 -20 -150 -40 -71 -20 -139 -38 -150 -41 -11 -3
-24 -6 -30 -8 -5 -2 -23 -6 -40 -11 -218 -57 -529 -140 -600 -160 -49 -14 -99
-27 -110 -29 -11 -3 -63 -16 -115 -31 -52 -14 -103 -28 -113 -30 -10 -2 -111
-30 -225 -61 -114 -31 -215 -58 -224 -60 -22 -5 -28 -7 -143 -38 -136 -37
-468 -126 -488 -131 -10 -2 -27 -7 -37 -10 -10 -3 -27 -8 -37 -10 -43 -11
-130 -34 -160 -44 -18 -5 -33 -8 -33 -6 0 3 -12 0 -27 -6 -16 -6 -62 -20 -103
-30 -41 -11 -141 -38 -222 -60 -81 -22 -157 -42 -169 -44 -12 -3 -36 -9 -54
-15 -18 -6 -41 -12 -51 -14 -10 -2 -86 -22 -167 -45 -81 -22 -158 -43 -170
-45 -12 -3 -71 -19 -132 -36 -60 -17 -119 -32 -130 -34 -11 -3 -20 -5 -20 -6
0 -1 -7 -3 -15 -5 -14 -3 -103 -27 -340 -91 -52 -14 -104 -28 -115 -30 -11 -2
-69 -17 -130 -34 -60 -17 -117 -33 -125 -35 -8 -2 -51 -13 -95 -25 -44 -12
-100 -27 -123 -32 -40 -9 -44 -12 -39 -37 11 -58 18 -87 24 -101 3 -8 8 -23
10 -33 1 -10 14 -57 27 -105 14 -48 27 -98 30 -112 3 -14 17 -65 31 -115 26
-89 31 -109 39 -142 3 -15 22 -84 50 -188 2 -5 6 -23 11 -40 4 -16 18 -70 32
-120 14 -49 26 -94 27 -100 2 -5 8 -28 14 -50 6 -22 14 -56 17 -75 3 -19 11
-40 17 -47 6 -7 8 -13 5 -13 -3 0 -1 -15 4 -32 6 -18 12 -41 14 -51 2 -9 6
-21 9 -25 3 -5 7 -19 9 -33 7 -33 78 -302 82 -309 2 -4 7 -20 10 -36 2 -16 28
-112 56 -214 27 -102 52 -192 54 -200 2 -8 18 -67 35 -130 17 -63 33 -122 34
-130 3 -18 21 -84 41 -155 8 -27 37 -135 65 -240 27 -104 56 -208 62 -230 7
-22 12 -45 10 -52 -1 -6 2 -14 8 -18 5 -3 10 -17 10 -31 0 -14 4 -33 9 -42 5
-9 12 -30 15 -47 5 -30 64 -250 66 -250 1 0 3 -7 5 -15 4 -21 25 -102 30 -120
24 -83 87 -321 91 -340 3 -14 9 -38 14 -55 5 -16 16 -55 24 -85 8 -30 24 -91
36 -135 12 -44 23 -87 25 -95 3 -16 78 -292 95 -350 5 -19 41 -154 80 -300 72
-272 76 -285 109 -405 11 -38 22 -81 25 -95 2 -14 11 -47 20 -75 8 -27 17 -61
20 -75 3 -14 14 -56 25 -95 10 -38 72 -266 136 -505 161 -601 182 -680 214
-800 l27 -105 35 1 c19 1 70 5 114 8 127 11 165 15 245 21 41 3 95 8 120 10
25 3 72 7 105 10 128 10 212 17 250 21 22 2 74 6 115 9 42 2 94 7 115 9 63 7
217 20 253 20 17 1 32 3 32 6 0 3 24 6 53 6 78 2 166 10 172 16 3 3 7 29 10
59 3 29 7 69 9 89 3 19 8 73 12 120 4 47 8 99 10 115 1 17 5 55 8 85 2 30 7
82 10 115 7 69 14 144 21 230 3 33 7 75 10 94 2 19 7 73 11 120 3 47 8 88 9
92 2 3 6 48 10 101 3 53 8 111 10 129 3 19 7 63 10 99 3 36 7 83 10 105 3 22
8 72 10 110 5 64 8 101 20 205 2 19 6 69 10 110 3 41 8 91 10 110 2 19 7 67
10 105 9 109 15 177 20 215 2 19 7 69 10 110 4 41 8 91 11 110 2 19 6 69 10
111 3 42 7 84 9 95 2 10 4 34 4 51 1 27 6 34 29 39 15 4 92 24 172 46 80 21
152 41 160 43 12 3 78 21 150 40 52 15 98 26 120 31 14 2 36 9 50 14 20 7 327
90 390 105 8 2 67 18 130 35 63 17 126 33 139 36 14 3 28 7 33 10 5 3 21 8 36
10 15 3 56 13 92 23 36 11 79 22 95 27 17 4 36 9 43 11 6 1 20 5 30 7 9 3 18
5 20 6 4 4 15 7 60 15 23 4 44 11 47 14 4 7 -3 38 -30 136 -9 33 -27 101 -40
150 -12 50 -25 97 -29 105 -3 8 -8 26 -10 40 -5 26 -37 143 -54 198 -6 17 -9
32 -6 32 3 0 0 8 -5 18 -6 11 -12 31 -15 46 -3 15 -12 53 -21 84 -10 31 -18
64 -20 72 -4 18 -63 242 -104 390 -29 106 -42 158 -40 162 0 2 -5 17 -11 33
-7 17 -14 44 -17 60 -7 40 -22 67 -33 60 -6 -4 -19 -8 -30 -11 -26 -5 -358
-94 -405 -108 -5 -2 -23 -6 -40 -11 -16 -4 -113 -30 -215 -57 -102 -27 -192
-51 -200 -53 -8 -2 -15 -4 -15 -5 0 -2 -16 -5 -57 -13 -14 -3 -36 -10 -47 -17
-12 -6 -21 -9 -21 -6 0 3 -39 -6 -87 -20 -49 -14 -99 -27 -112 -30 -13 -3 -80
-21 -150 -40 -69 -19 -137 -37 -151 -40 -14 -3 -38 -9 -55 -15 -16 -5 -79 -22
-140 -38 -60 -16 -164 -44 -230 -61 -66 -18 -127 -34 -135 -35 -8 -2 -15 -4
-15 -5 0 -1 -7 -3 -16 -5 -9 -1 -43 -11 -75 -20 -33 -9 -66 -18 -75 -20 -9 -2
-34 -8 -55 -15 -22 -6 -100 -27 -174 -47 -74 -19 -152 -40 -173 -45 -21 -6
-40 -8 -43 -6 -5 6 -52 170 -58 203 -2 11 -4 20 -5 20 -2 0 -4 7 -6 15 -1 8
-10 42 -19 75 -20 72 -25 90 -30 113 -10 43 -118 449 -123 462 -7 18 -13 39
-17 60 -1 8 -5 22 -9 30 -3 8 -8 26 -10 40 -2 14 -6 32 -9 40 -9 24 -31 103
-34 120 -1 8 -16 67 -33 130 -18 63 -34 122 -36 130 -2 8 -4 15 -5 15 -1 0 -3
7 -5 15 -2 8 -8 37 -14 64 -7 27 -10 50 -9 52 2 1 15 5 28 7 14 2 32 7 40 10
13 5 183 50 230 62 8 1 51 13 95 24 44 12 87 23 95 25 8 3 51 14 95 26 44 12
84 23 90 24 5 1 16 5 23 9 6 5 12 6 12 3 0 -5 85 17 120 31 8 3 22 7 30 8 8 1
35 8 60 15 25 7 52 14 60 15 8 2 15 4 15 5 0 2 12 5 50 13 11 3 40 11 65 18
25 7 50 14 55 15 6 1 55 15 110 29 55 15 107 29 115 30 8 2 15 4 15 5 0 1 7 3
15 5 8 2 49 12 90 23 133 36 459 123 477 127 10 2 56 15 103 28 47 13 87 24
90 24 3 0 32 8 65 18 33 9 70 19 82 21 12 2 33 8 45 13 13 5 26 9 31 10 4 0 8
1 10 2 1 0 9 2 17 4 8 1 42 10 75 19 62 18 239 65 265 71 8 2 40 11 70 20 30
8 69 18 85 21 17 3 38 10 48 15 9 5 17 7 17 3 0 -3 7 -1 15 6 8 7 15 10 15 7
0 -3 30 3 68 14 37 11 80 22 96 25 16 2 33 7 38 10 8 5 22 9 77 20 14 3 29 8
35 12 6 3 17 7 26 8 8 1 51 11 95 23 44 12 87 23 95 25 8 2 51 14 95 26 90 25
331 88 358 95 9 2 21 6 25 9 5 3 20 7 34 10 13 2 69 16 124 31 54 14 106 28
114 31 8 2 54 14 102 26 49 13 88 28 88 33 0 6 -9 44 -21 85 -21 76 -26 96
-35 139 -3 13 -9 32 -15 43 -5 10 -8 18 -5 18 3 0 0 15 -5 33 -15 48 -58 204
-63 229 -3 13 -30 115 -61 228 -31 113 -58 213 -60 223 -2 10 -7 27 -10 37 -3
10 -8 27 -10 37 -2 10 -13 49 -24 86 -11 38 -22 81 -25 95 -3 15 -17 70 -31
122 -15 52 -29 102 -30 110 -12 53 -31 101 -38 94z"/>
</g>
</svg>
